<svg id="svg" xmlns="http://www.w3.org/2000/svg" xmlns:xlink="http://www.w3.org/1999/xlink" width="400" height="397.7213878819265" viewBox="0, 0, 400,397.7213878819265"><g id="svgg"><path id="path0" d="M188.193 0.216 C 127.943 4.226,74.960 32.715,39.312 80.269 C 16.529 110.662,3.763 144.887,0.369 184.671 C 0.005 188.935,0.007 209.034,0.372 213.257 C 1.989 231.986,5.178 247.544,10.626 263.283 C 42.124 354.285,133.864 409.705,229.704 395.630 C 331.379 380.698,405.538 290.220,399.812 188.089 C 394.215 88.249,316.746 9.253,215.847 0.496 C 211.410 0.111,192.628 -0.079,188.193 0.216 M183.325 2.609 C 141.919 11.403,110.446 45.219,105.357 86.380 C 97.990 145.960,144.629 197.116,206.005 196.778 C 208.513 196.765,211.403 196.859,212.429 196.989 C 272.068 204.513,311.490 262.115,296.928 320.456 C 288.956 352.397,265.862 377.981,234.283 389.857 C 232.517 390.521,230.010 391.497,228.711 392.026 C 215.224 397.520,187.582 397.639,160.849 392.317 C 83.445 376.907,22.297 316.779,5.823 239.876 C -18.422 126.698,60.776 16.665,176.385 2.906 C 184.177 1.978,186.826 1.865,183.325 2.609 M209.529 66.428 C 226.337 68.985,238.448 86.199,235.153 102.848 C 230.320 127.278,200.919 136.949,182.940 120.024 C 160.448 98.852,178.850 61.759,209.529 66.428 M195.028 267.315 C 170.423 271.202,159.976 300.757,176.573 319.529 C 190.982 335.827,218.293 332.234,228.088 312.752 C 239.679 289.699,220.469 263.296,195.028 267.315 " stroke="none" fill="#000000" fill-rule="evenodd"></path></g></svg>